Coordinates
version=1
nRows=6
nColumns=63
inDegrees=yes

Units are S.I. units (second, meters, Newtons, ...)
If the header above contains a line with 'inDegrees', this indicates whether rotational values are in degrees (yes) or radians (no).

endheader
time	pelvis_tilt	pelvis_list	pelvis_rotation	pelvis_tx	pelvis_ty	pelvis_tz	hip_flexion_r	hip_adduction_r	hip_rotation_r	knee_angle_r	knee_angle_r_beta	ankle_angle_r	subtalar_angle_r	mtp_angle_r	hip_flexion_l	hip_adduction_l	hip_rotation_l	knee_angle_l	knee_angle_l_beta	ankle_angle_l	subtalar_angle_l	mtp_angle_l	L5_S1_Flex_Ext	L5_S1_Lat_Bending	L5_S1_axial_rotation	L4_L5_Flex_Ext	L4_L5_Lat_Bending	L4_L5_axial_rotation	L3_L4_Flex_Ext	L3_L4_Lat_Bending	L3_L4_axial_rotation	L2_L3_Flex_Ext	L2_L3_Lat_Bending	L2_L3_axial_rotation	L1_L2_Flex_Ext	L1_L2_Lat_Bending	L1_L2_axial_rotation	L1_T12_Flex_Ext	L1_T12_Lat_Bending	L1_T12_axial_rotation	Abs_r3	Abs_r2	Abs_r1	Abs_t1	Abs_t2	neck_flexion	neck_bending	neck_rotation	arm_flex_r	arm_add_r	arm_rot_r	elbow_flex_r	pro_sup_r	wrist_flex_r	wrist_dev_r	arm_flex_l	arm_add_l	arm_rot_l	elbow_flex_l	pro_sup_l	wrist_flex_l	wrist_dev_l
      4.40000000	      6.47310598	     -1.15379117	    173.81615574	      2.57825629	      0.88261432	      0.68896027	     16.65783818	     -4.69991290	    -12.49224302	     26.66344597	      0.46536492	     26.38096108	      1.42078185	      0.00000000	      9.30495834	      0.03994544	     -1.74893861	     15.06343542	      0.26290654	     16.74315735	    -15.83661855	      0.00000000	      0.00168880	     -0.16924091	     -0.56129182	      0.00313628	     -0.22509041	     -0.59637256	      0.00277454	     -0.41149235	     -0.59637256	      0.00193013	     -0.41149235	     -0.49113034	      0.00156822	     -0.34511606	     -0.45604960	      0.00096498	     -0.26215417	     -0.42096886	      0.01206295	     -1.91448701	     -3.12173671	      0.00000000	      0.00000000	     -0.00000000	      0.00000000	      0.00000000	     -6.94438914	     -1.57386055	    -16.58606739	     33.17768407	     48.88258328	      0.00000000	      5.00000069	    -14.91413133	     -5.13070595	      0.40987482	     27.31953659	     53.91622169	      0.00000000	      5.00000069
      4.43333333	      6.48518981	     -1.11888050	    174.02667785	      2.57853300	      0.88278438	      0.68943225	     16.64573257	     -4.69363638	    -12.21072143	     26.59613950	      0.46419020	     26.27295045	      1.41365479	      0.00000000	      9.74979528	     -0.04727662	     -1.60100065	     15.89800423	      0.27747252	     17.09530598	    -15.59034704	      0.00000000	     -0.00039310	     -0.16071090	     -0.60826733	     -0.00073003	     -0.21374550	     -0.64628404	     -0.00064583	     -0.39075248	     -0.64628404	     -0.00044928	     -0.39075248	     -0.53223392	     -0.00036504	     -0.32772167	     -0.49421721	     -0.00022462	     -0.24894118	     -0.45620050	     -0.00280790	     -1.81799383	     -3.38300043	      0.00000000	      0.00000000	     -0.00000000	      0.00000000	      0.00000000	     -6.77489498	     -1.85147130	    -15.87525771	     32.87466246	     48.76471208	      0.00000000	      5.00000061	    -14.90890304	     -5.13101790	      0.65002051	     27.38474108	     53.74449592	      0.00000000	      5.00000061
      4.46666667	      6.47554046	     -1.14986912	    173.89271106	      2.57887205	      0.88319017	      0.68951779	     16.72737330	     -4.66481742	    -11.45073956	     26.57671152	      0.46385112	     26.08026122	      1.58932782	      0.00000000	     10.32408019	     -0.26464510	     -2.65978178	     17.01903562	      0.29703821	     18.17142150	    -13.97150322	      0.00000000	     -0.00112539	     -0.15764306	     -0.58036256	     -0.00208997	     -0.20966527	     -0.61663522	     -0.00184891	     -0.38329333	     -0.61663522	     -0.00128621	     -0.38329333	     -0.50781724	     -0.00104504	     -0.32146572	     -0.47154458	     -0.00064305	     -0.24418910	     -0.43527192	     -0.00803857	     -1.78328981	     -3.22780244	      0.00000000	      0.00000000	     -0.00000000	      0.00000000	      0.00000000	     -6.53558796	     -2.00412732	    -15.69188195	     32.41843289	     48.64001567	      0.00000000	      5.00000057	    -14.82609476	     -5.10806073	      0.61852866	     27.29558231	     53.45727066	      0.00000000	      5.00000057
      4.50000000	      6.48224780	     -1.30110461	    173.80122876	      2.57941389	      0.88355532	      0.68982967	     17.02775161	     -4.84450865	    -10.84805187	     26.93911524	      0.47017626	     25.99262842	      1.88661946	      0.00000000	     11.19191380	     -0.21068569	     -2.60098949	     18.54853787	      0.32373306	     18.80654399	    -14.23788468	      0.00000000	     -0.00023749	     -0.16585714	     -0.54448975	     -0.00044104	     -0.22059000	     -0.57852036	     -0.00039017	     -0.40326505	     -0.57852036	     -0.00027142	     -0.40326505	     -0.47642853	     -0.00022053	     -0.33821588	     -0.44239792	     -0.00013570	     -0.25691271	     -0.40836731	     -0.00169635	     -1.87620913	     -3.02828864	      0.00000000	      0.00000000	     -0.00000000	      0.00000000	      0.00000000	     -6.25986231	     -2.29155241	    -15.04235929	     31.86144072	     48.73728670	      0.00000000	      5.00000056	    -14.68588966	     -5.12847096	      0.65531449	     27.27333857	     53.53228019	      0.00000000	      5.00000056
      4.53333333	      6.42437342	     -1.49755604	    173.78792470	      2.57968219	      0.88401970	      0.69001110	     17.15620801	     -5.05508597	    -10.44601617	     27.15498436	      0.47394389	     25.98314614	      2.05384742	      0.00000000	     11.73003301	     -0.09028392	     -2.48042256	     19.55713973	      0.34133648	     19.55391046	    -14.15227653	      0.00000000	     -0.00048022	     -0.18092843	     -0.50231624	     -0.00089182	     -0.24063481	     -0.53371101	     -0.00078896	     -0.43990937	     -0.53371101	     -0.00054884	     -0.43990937	     -0.43952671	     -0.00044593	     -0.36894925	     -0.40813195	     -0.00027440	     -0.28025813	     -0.37673718	     -0.00343017	     -2.04669854	     -2.79373226	      0.00000000	      0.00000000	     -0.00000000	      0.00000000	      0.00000000	     -5.99047977	     -2.54523926	    -14.46061484	     31.17648097	     48.83811672	      0.00000000	      5.00000055	    -14.46097570	     -5.19867568	      0.67978268	     27.09410196	     53.57960472	      0.00000000	      5.00000055
      4.56666667	      6.35490424	     -1.57537492	    173.87880197	      2.57998821	      0.88433938	      0.69014305	     17.24414815	     -5.14744608	    -10.32437866	     27.40550202	      0.47831624	     25.84285061	      1.74427027	      0.00000000	     12.08632198	     -0.29851330	     -3.65478076	     20.31665947	      0.35459260	     20.69858413	    -12.02109577	      0.00000000	     -0.00071718	     -0.18226865	     -0.48128066	     -0.00133188	     -0.24241730	     -0.51136070	     -0.00117826	     -0.44316798	     -0.51136070	     -0.00081967	     -0.44316798	     -0.42112057	     -0.00066597	     -0.37168222	     -0.39104053	     -0.00040980	     -0.28233413	     -0.36096049	     -0.00512276	     -2.06185937	     -2.67673863	      0.00000000	      0.00000000	     -0.00000000	      0.00000000	      0.00000000	     -5.72459318	     -3.51743197	    -10.93017722	     30.40743192	     49.35428092	      0.00000000	      5.00000048	    -14.22038955	     -5.36698272	      1.35928855	     26.92357335	     53.70977227	      0.00000000	      5.00000048
